<svg class="svg__user" xmlns="http://www.w3.org/2000/svg" width="18" height="24" viewBox="0 0 18 24">
<style type="text/css">
	.svg__user path{fill:#22a7e3;}
</style>
<path d="M1657.47,9078.58a3.131,3.131,0,0,1-3.15-2.88,5.315,5.315,0,0,0,1.23-1.23,7.667,7.667,0,0,0,1.34-3.53,0.533,0.533,0,0,0,.13-0.19,5.947,5.947,0,0,0,.44-2.26,5.272,5.272,0,0,0-5.01-5.49,23.811,23.811,0,0,1-2.83.63,4.2,4.2,0,0,0-2.6,2.41,6.049,6.049,0,0,0-.29,3.93,6.181,6.181,0,0,0,.27.83,0.567,0.567,0,0,0,.12.18,6.783,6.783,0,0,0,2.56,4.72,3.131,3.131,0,0,1-3.15,2.88,3.694,3.694,0,0,0-3.53,3.71v4.17a0.536,0.536,0,0,0,.53.54h16.94a0.536,0.536,0,0,0,.53-0.54v-4.17A3.694,3.694,0,0,0,1657.47,9078.58Zm-7.55-13.91a2.989,2.989,0,0,1,.61-0.1,0.456,0.456,0,0,0,.22-0.06,3.548,3.548,0,0,1,1.7-.43,4.2,4.2,0,0,1,3.95,4.41,1.7,1.7,0,0,1-.01.22,2.282,2.282,0,0,0-1.65-.71h-3.63a1.006,1.006,0,0,1-.6-0.2,0.976,0.976,0,0,1-.32-0.43,0.649,0.649,0,0,0-.65-0.41,0.638,0.638,0,0,0-.59.49,4.985,4.985,0,0,1-1.21,2.19C1647.21,9067.4,1648.17,9065.18,1649.92,9064.67Zm-0.47,9.35a6.494,6.494,0,0,1-1.29-3.29,6.077,6.077,0,0,0,1.55-2.2c0.05,0.05.11,0.09,0.17,0.14a2,2,0,0,0,1.23.41h3.63a1.262,1.262,0,0,1,1.15.76v0.01c0,3.05-1.75,5.53-3.89,5.53A3.319,3.319,0,0,1,1649.45,9074.02Zm1.23,2.21a3.906,3.906,0,0,0,1.32.24,3.716,3.716,0,0,0,1.32-.24,4.273,4.273,0,0,0,1.55,2.55l-2.79,4.04a0.091,0.091,0,0,1-.08.04,0.067,0.067,0,0,1-.07-0.04l-2.8-4.04A4.273,4.273,0,0,0,1650.68,9076.23Zm9.25,9.69h-15.87v-3.63a2.619,2.619,0,0,1,2.59-2.63,4.556,4.556,0,0,0,1.56-.33l2.84,4.11a1.167,1.167,0,0,0,.95.5h0a1.167,1.167,0,0,0,.95-0.5l2.84-4.11a4.414,4.414,0,0,0,1.56.33,2.61,2.61,0,0,1,2.58,2.63v3.63h0Z" transform="translate(-1643 -9063)"/>
</svg>
